<svg xmlns="http://www.w3.org/2000/svg" viewBox="0 0 128 128" role="img" aria-labelledby="title desc">
  <title id="title">ProxyUp logo</title>
  <desc id="desc">A refined ProxyUp monogram with layered video frames and an upward motion curve.</desc>
  <defs>
    <linearGradient id="base" x1="25" y1="19" x2="103" y2="109" gradientUnits="userSpaceOnUse">
      <stop offset="0" stop-color="#111827"/>
      <stop offset="0.58" stop-color="#172554"/>
      <stop offset="1" stop-color="#0f766e"/>
    </linearGradient>
    <linearGradient id="motion" x1="33" y1="91" x2="95" y2="30" gradientUnits="userSpaceOnUse">
      <stop offset="0" stop-color="#38bdf8"/>
      <stop offset="0.54" stop-color="#2dd4bf"/>
      <stop offset="1" stop-color="#f59e0b"/>
    </linearGradient>
    <filter id="shadow" x="-18%" y="-18%" width="136%" height="142%">
      <feDropShadow dx="0" dy="10" stdDeviation="9" flood-color="#0f172a" flood-opacity="0.2"/>
    </filter>
  </defs>

  <rect x="32" y="18" width="72" height="86" rx="23" fill="#dbeafe"/>
  <rect x="25" y="25" width="78" height="86" rx="24" fill="#ccfbf1"/>
  <rect x="20" y="20" width="88" height="88" rx="26" fill="url(#base)" filter="url(#shadow)"/>

  <path
    fill="#f8fafc"
    fill-rule="evenodd"
    d="M43 36h34c17.8 0 30 10.5 30 26.1C107 77.8 94.8 88 77 88H61v18H43V36Zm18 16v20h17.5C85.4 72 90 68.2 90 62.1 90 55.8 85.4 52 78.5 52H61Z"
  />
  <path d="M35 91C47.5 82.5 52.6 68.4 64.5 60.2 74.3 53.4 83.5 48.2 93 33" fill="none" stroke="url(#motion)" stroke-width="9" stroke-linecap="round"/>
  <path d="M83.5 34.5 96 29l-1 13.5" fill="none" stroke="#f59e0b" stroke-width="7" stroke-linecap="round" stroke-linejoin="round"/>

  <circle cx="35" cy="91" r="5" fill="#38bdf8"/>
  <circle cx="64.5" cy="60.2" r="4.5" fill="#2dd4bf"/>
  <circle cx="95.5" cy="30.5" r="4.5" fill="#f59e0b"/>
</svg>
